<svg width="136" height="30" viewBox="0 0 136 30" fill="none" xmlns="http://www.w3.org/2000/svg">
<path fill-rule="evenodd" clip-rule="evenodd" d="M115.321 19.9498C114.9 20.1052 114.389 20.1829 113.788 20.1829C112.627 20.1829 111.756 19.9066 111.175 19.354C110.594 18.7841 110.263 18.0934 110.183 17.2818L120.998 17.2818C121.219 16.1421 121.219 15.0714 120.998 14.0699C120.798 13.0683 120.388 12.1962 119.767 11.4537C119.166 10.6939 118.345 10.0981 117.303 9.6664C116.262 9.23469 115.03 9.01883 113.608 9.01883C112.386 9.01883 111.295 9.19152 110.334 9.53689C109.392 9.88225 108.601 10.3744 107.96 11.0133C107.319 11.635 106.819 12.3775 106.458 13.241C106.118 14.1044 105.947 15.0455 105.947 16.0644C105.947 18.3093 106.598 20.0534 107.9 21.2967C109.222 22.54 111.165 23.1617 113.728 23.1617C114.569 23.1617 115.371 23.0926 116.132 22.9545C116.893 22.7991 117.584 22.5573 118.205 22.2292C118.845 21.9011 119.386 21.478 119.827 20.96C120.287 20.4419 120.628 19.8289 120.848 19.1209L116.402 19.1209C116.122 19.5008 115.761 19.7771 115.321 19.9498ZM116.793 13.6295C116.973 13.9576 117.063 14.3375 117.063 14.7692H110.213C110.314 13.9921 110.654 13.3705 111.235 12.9042C111.836 12.4207 112.667 12.1703 113.728 12.1531C114.169 12.1531 114.59 12.2049 114.99 12.3085C115.411 12.4121 115.771 12.5761 116.072 12.8006C116.372 13.0078 116.612 13.2841 116.793 13.6295Z" fill="#181818"/>
<path d="M98.8216 19.9239C99.6227 19.9239 100.254 19.7598 100.714 19.4317C101.195 19.1036 101.485 18.7323 101.585 18.3179L106.032 18.3179C105.891 19.1986 105.601 19.9411 105.16 20.5455C104.72 21.1499 104.169 21.6507 103.508 22.0479C102.867 22.445 102.136 22.73 101.315 22.9027C100.494 23.0753 99.6427 23.1617 98.7615 23.1617C97.4397 23.1617 96.2881 23.0063 95.3067 22.6954C94.3454 22.3673 93.5442 21.9011 92.9034 21.2967C92.2625 20.675 91.7718 19.9325 91.4313 19.0691C91.1109 18.1884 90.9506 17.2041 90.9506 16.1162C90.9506 15.0628 91.1309 14.0958 91.4914 13.2151C91.8519 12.3344 92.3626 11.5832 93.0235 10.9615C93.7045 10.3399 94.5356 9.86499 95.517 9.53689C96.4984 9.19152 97.6199 9.01883 98.8817 9.01883C99.8029 9.01883 100.664 9.11381 101.465 9.30376C102.286 9.49372 103.007 9.78728 103.628 10.1845C104.269 10.5816 104.79 11.091 105.19 11.7127C105.611 12.3171 105.891 13.0424 106.032 13.8885L101.585 13.8885C101.485 13.4741 101.185 13.1028 100.684 12.7747C100.203 12.4466 99.5726 12.2826 98.7915 12.2826C98.1306 12.2826 97.5598 12.3862 97.0792 12.5934C96.5985 12.8006 96.218 13.0856 95.9376 13.4482C95.6572 13.8108 95.4569 14.2253 95.3367 14.6915C95.2166 15.1578 95.1565 15.6499 95.1565 16.168C95.1565 16.7206 95.2266 17.23 95.3668 17.6962C95.507 18.1452 95.7173 18.5424 95.9977 18.8878C96.2781 19.2159 96.6486 19.4749 97.1092 19.6648C97.5899 19.8375 98.1607 19.9239 98.8216 19.9239Z" fill="#181818"/>
<path fill-rule="evenodd" clip-rule="evenodd" d="M75.7349 12.3653V9.30376H71.8595V7.95682C71.8595 6.81711 72.5104 6.24725 73.8122 6.24725L75.7349 6.24725V3.06122L73.2114 3.06122C71.3488 3.06122 69.9469 3.42386 69.0055 4.14913C68.0843 4.87441 67.6236 6.00549 67.6236 7.54238V9.30376H65.0239V4.61538L60.758 4.61538V10.3917C60.2573 9.94269 59.6364 9.60596 58.8954 9.38147C58.1744 9.13971 57.3533 9.01883 56.432 9.01883C55.2103 9.01883 54.1188 9.18288 53.1574 9.51098C52.1961 9.83908 51.395 10.2967 50.7541 10.8838C49.3121 12.2308 48.5911 14.018 48.5911 16.2457C48.5911 17.1954 48.7413 18.1279 49.0417 19.0432C49.3622 19.9584 49.9029 20.7614 50.664 21.4521C51.3049 22.022 52.0659 22.4537 52.9471 22.7472C53.8284 23.0235 54.7897 23.1617 55.8311 23.1617C56.9527 23.1272 57.904 22.9804 58.6851 22.7213C59.4862 22.4451 60.2072 22.0133 60.8481 21.4262L61.0884 22.9545H65.0239V12.4898H67.6236V22.9545H71.8595V12.4898L75.6617 12.4898C75.0367 13.5816 74.7242 14.8681 74.7242 16.3493C74.7242 17.2991 74.8715 18.2315 75.166 19.1468C75.4802 20.062 76.0103 20.865 76.7564 21.5557C77.3847 22.1256 78.1308 22.5573 78.9948 22.8509C79.8587 23.1272 80.8012 23.2653 81.8222 23.2653C82.9217 23.2308 83.8544 23.084 84.6201 22.825C85.4055 22.5487 86.1124 22.1169 86.7407 21.5298L86.9763 23.0581H90.8345V9.12345L86.9763 9.12244L86.6523 10.4953C86.1614 10.0463 85.5528 9.70957 84.8263 9.48508C84.1194 9.24332 83.3144 9.12244 82.4112 9.12244C81.2135 9.12244 80.1434 9.28649 79.2009 9.61459C78.2585 9.94269 77.4731 10.4003 76.8448 10.9874C76.407 11.4045 76.0371 11.8638 75.7349 12.3653ZM56.8225 19.9239C58.1043 19.8893 59.0756 19.518 59.7366 18.81C60.4175 18.0848 60.758 17.1954 60.758 16.1421C60.758 15.0023 60.4175 14.0785 59.7366 13.3705C59.0556 12.6625 58.0642 12.2998 56.7624 12.2826C56.1015 12.2826 55.5207 12.3775 55.02 12.5675C54.5393 12.7575 54.1288 13.0337 53.7883 13.3964C53.4679 13.7418 53.2275 14.1476 53.0673 14.6138C52.9071 15.0628 52.827 15.5549 52.827 16.0903C52.827 16.6601 52.9071 17.1782 53.0673 17.6444C53.2275 18.0934 53.4679 18.4906 53.7883 18.8359C54.1288 19.1813 54.5494 19.449 55.0501 19.6389C55.5708 19.8289 56.1616 19.9239 56.8225 19.9239ZM85.6509 18.9137C85.003 19.6217 84.0507 19.9929 82.7941 20.0275C82.1461 20.0275 81.5669 19.9325 81.0564 19.7425C80.5656 19.5526 80.1532 19.2849 79.8194 18.9396C79.5053 18.5942 79.2697 18.197 79.1126 17.748C78.9555 17.2818 78.877 16.7637 78.877 16.1939C78.877 15.6586 78.9555 15.1664 79.1126 14.7174C79.2697 14.2512 79.5053 13.8454 79.8194 13.5C80.1532 13.1374 80.5557 12.8611 81.027 12.6711C81.5178 12.4812 82.0872 12.3862 82.7352 12.3862C84.0114 12.4034 84.9834 12.7661 85.6509 13.4741C86.3185 14.1821 86.6523 15.106 86.6523 16.2457C86.6523 17.2991 86.3185 18.1884 85.6509 18.9137Z" fill="#181818"/>
<path fill-rule="evenodd" clip-rule="evenodd" d="M34.611 21.2967C35.9929 22.54 37.9656 23.1617 40.5292 23.1617C43.0927 23.1617 45.0655 22.54 46.4474 21.2967C47.8493 20.0534 48.5503 18.3093 48.5503 16.0644C48.5503 14.9937 48.3601 14.0267 47.9795 13.1633C47.619 12.2826 47.0883 11.5314 46.3873 10.9097C45.7064 10.2881 44.8652 9.82181 43.8638 9.51098C42.8824 9.18288 41.7709 9.01883 40.5292 9.01883C39.2674 9.01883 38.1359 9.18288 37.1345 9.51098C36.1531 9.82182 35.3219 10.2881 34.641 10.9097C33.9801 11.5314 33.4594 12.2826 33.0788 13.1633C32.7183 14.0267 32.5381 14.9937 32.5381 16.0644C32.5381 18.292 33.229 20.0361 34.611 21.2967ZM37.6452 13.3705C38.266 12.6452 39.2274 12.2826 40.5292 12.2826C41.831 12.2826 42.7823 12.6452 43.3831 13.3705C43.984 14.0958 44.2844 15.0024 44.2844 16.0903C44.2844 17.1954 43.984 18.1107 43.3831 18.8359C42.7823 19.5612 41.831 19.9239 40.5292 19.9239C39.2274 19.9239 38.266 19.5612 37.6452 18.8359C37.0243 18.1107 36.7139 17.1954 36.7139 16.0903C36.7139 15.0024 37.0243 14.0958 37.6452 13.3705Z" fill="#181818"/>
<path fill-rule="evenodd" clip-rule="evenodd" d="M24.4762 23.1617C21.9126 23.1617 19.9399 22.54 18.5579 21.2967C17.3628 20.2065 16.6845 18.7547 16.5229 16.9412V22.0997C16.5229 22.6523 16.4829 23.1962 16.4028 23.7315C16.3427 24.2841 16.2325 24.8108 16.0723 25.3116C15.9121 25.8297 15.6718 26.3218 15.3513 26.7881C14.9908 27.3579 14.5502 27.8414 14.0295 28.2386C13.5288 28.6358 12.968 28.9639 12.3471 29.2229C11.7263 29.4992 11.0654 29.6978 10.3644 29.8187C9.66342 29.9396 8.95243 30 8.23144 30C7.31015 30 6.42892 29.905 5.58776 29.7151C4.74659 29.5424 3.97553 29.2488 3.27455 28.8344C2.5936 28.4372 2.02281 27.9278 1.56217 27.3061C1.12156 26.6845 0.831154 25.9419 0.690962 25.0785H5.19721C5.27733 25.4929 5.59777 25.8642 6.15855 26.1923C6.71933 26.5204 7.40028 26.6845 8.20139 26.6845C9.06259 26.6845 9.76356 26.5377 10.3043 26.2441C10.8651 25.9505 11.2857 25.562 11.5661 25.0785C11.8464 24.595 12.0267 24.0424 12.1068 23.4207C12.1869 22.7991 12.227 22.1774 12.227 21.5557C11.6262 22.1429 10.9051 22.5573 10.064 22.7991C9.22281 23.0408 8.31154 23.1617 7.33018 23.1617C6.34882 23.1617 5.38748 23.0322 4.44618 22.7732C3.5249 22.4969 2.72378 22.0565 2.04284 21.4521C1.28178 20.7614 0.751047 19.967 0.45063 19.0691C0.150214 18.1711 -4.22598e-08 17.2472 0 16.2975C9.98869e-08 14.0526 0.721005 12.2567 2.163 10.9097C2.78387 10.3226 3.58498 9.86499 4.56634 9.53689C5.56773 9.20879 6.63922 9.05337 7.78081 9.07064C8.52183 9.0361 9.32294 9.14835 10.1841 9.40737C11.0453 9.6664 11.7864 10.0981 12.4072 10.7025L12.8579 9.30376L16.5229 9.30376L16.5229 15.2361C16.5931 14.4891 16.7607 13.7982 17.0258 13.1633C17.4064 12.2826 17.9271 11.5314 18.588 10.9097C19.2689 10.2881 20.1001 9.82182 21.0815 9.51098C22.0828 9.18288 23.2144 9.01883 24.4762 9.01883C25.7179 9.01883 26.8294 9.18288 27.8108 9.51098C28.8122 9.82181 29.6534 10.2881 30.3343 10.9097C31.0353 11.5314 31.566 12.2826 31.9265 13.1633C32.307 14.0267 32.4973 14.9937 32.4973 16.0644C32.4973 18.3093 31.7963 20.0534 30.3944 21.2967C29.0125 22.54 27.0397 23.1617 24.4762 23.1617ZM24.4762 12.2826C23.1744 12.2826 22.213 12.6452 21.5922 13.3705C20.9713 14.0958 20.6609 15.0024 20.6609 16.0903C20.6609 17.1954 20.9713 18.1107 21.5922 18.8359C22.213 19.5612 23.1744 19.9239 24.4762 19.9239C25.778 19.9239 26.7293 19.5612 27.3301 18.8359C27.931 18.1107 28.2314 17.1954 28.2314 16.0903C28.2314 15.0023 27.931 14.0958 27.3301 13.3705C26.7293 12.6452 25.778 12.2826 24.4762 12.2826ZM8.29151 19.9239C8.95243 19.9239 9.53324 19.8202 10.0339 19.613C10.5547 19.4058 10.9752 19.1295 11.2957 18.7841C11.6161 18.4215 11.8565 18.0071 12.0167 17.5408C12.1769 17.0573 12.257 16.5479 12.257 16.0126C12.257 14.9419 11.9065 14.0612 11.2056 13.3705C10.5246 12.6625 9.54325 12.2998 8.26147 12.2826C7.60056 12.2826 7.00974 12.3862 6.48901 12.5934C5.98832 12.8006 5.56773 13.0769 5.22726 13.4223C4.90682 13.7677 4.66648 14.1735 4.50626 14.6397C4.34604 15.106 4.26592 15.6067 4.26592 16.1421C4.26592 16.7119 4.34604 17.23 4.50626 17.6962C4.68651 18.1452 4.94687 18.5424 5.28734 18.8878C5.62781 19.2159 6.0484 19.4749 6.5491 19.6648C7.04979 19.8375 7.63059 19.9239 8.29151 19.9239Z" fill="#181818"/>
<path d="M119.608 6.13928C118.408 10.5563 121.037 15.0885 125.481 16.2622C129.925 17.4359 134.501 14.8066 135.702 10.3896C136.903 5.97256 134.274 1.44038 129.829 0.266693C125.385 -0.906997 120.809 1.72225 119.608 6.13928Z" fill="#D4EE36"/>
<path fill-rule="evenodd" clip-rule="evenodd" d="M122.91 6.75004C122.73 7.41426 122.678 8.10459 122.756 8.78111C122.835 9.45757 123.042 10.1058 123.364 10.6891C123.687 11.2724 124.118 11.7792 124.632 12.1823C125.145 12.5854 125.732 12.8775 126.359 13.0432C126.987 13.2089 127.643 13.2453 128.292 13.1495C128.942 13.0536 129.572 12.8272 130.147 12.481C130.722 12.1348 131.231 11.6757 131.641 11.1285C132.052 10.5813 132.357 9.95771 132.538 9.29349L133.408 9.52348C133.198 10.2966 132.843 11.0233 132.364 11.662C131.884 12.3008 131.289 12.8392 130.612 13.2464C129.936 13.6536 129.191 13.9217 128.421 14.0353C127.651 14.149 126.871 14.106 126.124 13.9088C125.378 13.7115 124.68 13.364 124.071 12.886C123.461 12.4079 122.953 11.8087 122.573 11.1226C122.194 10.4365 121.952 9.67693 121.86 8.88721C121.769 8.0975 121.83 7.29314 122.04 6.52005L122.91 6.75004Z" fill="#181818"/>
<path d="M129.43 5.46327C129.218 6.24225 129.417 6.97162 129.874 7.09236C130.331 7.21311 130.873 6.6795 131.085 5.90052C131.297 5.12154 131.098 4.39217 130.641 4.27142C130.183 4.15068 129.641 4.68429 129.43 5.46327Z" fill="#181818"/>
<path d="M125.877 4.52153C125.665 5.30051 125.864 6.02988 126.321 6.15062C126.778 6.27137 127.32 5.73776 127.532 4.95878C127.744 4.1798 127.545 3.45043 127.088 3.32968C126.631 3.20894 126.088 3.74254 125.877 4.52153Z" fill="#181818"/>
</svg>
